<?xml version="1.0" encoding="UTF-8"?>
<svg id="Layer_1" xmlns="http://www.w3.org/2000/svg" version="1.1" viewBox="0 0 29.47 7.65">
  <!-- Generator: Adobe Illustrator 30.5.1, SVG Export Plug-In . SVG Version: 2.1.4 Build 3)  -->
  <defs>
    <style>
      .st0, .st1 {
        fill: #968676;
      }

      .st1 {
        stroke: #968676;
        stroke-linecap: round;
        stroke-linejoin: round;
        stroke-width: .25px;
      }
    </style>
  </defs>
  <g>
    <path class="st0" d="M10.02,4.75c.12.11.28.16.49.16.15,0,.28-.04.39-.12.11-.08.17-.15.2-.24h.66c-.11.33-.27.56-.49.7-.22.14-.48.21-.8.21-.21,0-.41-.04-.59-.11-.17-.07-.32-.16-.44-.3s-.21-.28-.28-.45-.1-.36-.1-.59.04-.39.1-.57c.07-.17.16-.33.29-.46.12-.12.27-.23.44-.31s.36-.12.57-.12c.23,0,.43.05.6.13.17.09.32.21.42.36s.19.33.24.52.07.39.05.6h-1.97c0,.24.07.42.18.53l.02.02ZM10.87,3.31c-.09-.1-.23-.14-.41-.14-.12,0-.22.02-.3.06-.08.04-.14.09-.19.15-.05.06-.08.12-.1.19s-.03.12-.04.18h1.22c-.04-.19-.1-.34-.19-.43h0Z"/>
    <path class="st0" d="M12.96,2.67v.38h.02c.1-.15.22-.27.36-.35s.31-.11.46-.11c.2,0,.36.03.49.09s.23.13.31.23.12.21.15.36.05.3.05.46v1.68h-.75v-1.55c0-.22-.04-.39-.11-.5-.07-.12-.19-.16-.37-.16-.2,0-.36.06-.44.18s-.13.32-.13.6v1.43h-.75v-2.73h.71v-.02Z"/>
    <path class="st0" d="M16.06,5.4l-.93-2.73h.79l.58,1.86h0l.58-1.86h.75l-.92,2.73h-.84Z"/>
    <path class="st0" d="M18.15,2.25v-.61h.75v.61h-.75ZM18.9,2.67v2.73h-.75v-2.73s.75,0,.75,0Z"/>
    <path class="st0" d="M20.12,4.73c.03.06.08.11.12.14.06.04.12.07.18.09s.14.03.21.03c.05,0,.11,0,.16-.02.06,0,.12-.03.15-.06s.09-.06.12-.11.05-.1.05-.16c0-.12-.08-.2-.22-.25-.15-.06-.36-.12-.62-.17-.11-.03-.21-.06-.32-.09s-.19-.08-.28-.13c-.08-.06-.14-.12-.19-.2-.05-.09-.08-.18-.08-.31,0-.17.04-.32.11-.43.07-.12.16-.2.27-.27.12-.07.24-.12.38-.13.14-.03.29-.04.43-.04s.29,0,.43.04c.13.03.26.08.37.14.11.07.2.15.27.27.08.12.12.25.12.42h-.71c0-.14-.07-.24-.16-.3s-.21-.08-.35-.08h-.13s-.1.02-.13.04-.08.04-.11.08-.04.08-.04.13c0,.07.03.12.08.16s.12.08.19.11.17.05.27.07.2.05.31.07c.11.03.21.06.32.09.11.04.19.09.28.14.08.06.14.13.19.22.05.09.08.19.08.32,0,.18-.04.33-.11.45s-.16.22-.28.3-.25.12-.4.15-.3.05-.46.05-.32-.02-.46-.05c-.15-.03-.29-.09-.4-.15-.12-.08-.21-.17-.29-.3s-.12-.28-.12-.46h.71c0,.08.02.15.05.21h0Z"/>
    <path class="st0" d="M22.35,2.25v-.61h.75v.61h-.75ZM23.1,2.67v2.73h-.75v-2.73s.75,0,.75,0Z"/>
    <path class="st0" d="M23.7,3.44c.07-.17.16-.33.29-.45.12-.12.27-.22.44-.29.17-.07.36-.11.59-.11s.41.04.59.11.33.16.44.29c.12.12.22.28.29.45.07.18.1.37.1.6s-.04.41-.1.6c-.07.17-.16.33-.29.45s-.27.22-.44.29c-.17.07-.36.1-.59.1s-.41-.04-.59-.1c-.17-.07-.32-.16-.44-.29s-.22-.28-.29-.45-.1-.37-.1-.6.03-.41.1-.6ZM24.39,4.36c.02.11.06.2.11.28s.12.15.2.2c.09.05.19.08.32.08s.23-.03.32-.08c.09-.05.15-.12.2-.2s.09-.17.11-.28.03-.21.03-.32,0-.22-.03-.33-.06-.2-.11-.28c-.05-.08-.12-.14-.2-.2-.09-.05-.19-.08-.32-.08s-.23.03-.32.08-.15.12-.2.2-.09.17-.11.28-.03.21-.03.33,0,.21.03.32Z"/>
    <path class="st0" d="M27.63,2.67v.38h.02c.1-.15.22-.27.36-.35s.31-.11.46-.11c.2,0,.36.03.49.09.12.06.23.13.31.23s.12.21.15.36.05.3.05.46v1.68h-.75v-1.55c0-.22-.04-.39-.11-.5-.07-.12-.19-.16-.37-.16-.2,0-.36.06-.44.18s-.13.32-.13.6v1.43h-.75v-2.73h.71v-.02Z"/>
  </g>
  <path class="st1" d="M5.98,5.53l-1.08-.62,1.4-.81c.14-.08.23-.24.23-.4v-1.49c0-.16-.09-.32-.23-.4L3.57.19c-.15-.09-.33-.09-.47,0L.35,1.8c-.14.08-.23.24-.23.4v3.26c0,.17.09.32.23.4l2.75,1.6c.15.09.33.08.47,0l2.43-1.47s.15-.06.14-.23c0,0,.01-.13-.17-.23ZM3.21,2.05l-1.2.73-1.13-.67L3.25.7c.06-.04.13-.04.19,0l2.37,1.4-1.12.68-1.2-.72c-.09-.05-.2-.05-.29,0ZM4.19,3.06l-.5.31-.34.21-.85-.51.44-.26.41-.24.35.21.49.29ZM1.82,3.16v1.47c0,.1.05.19.13.24l1.22.74v1.4l-2.61-1.51v-3.08l1.26.75ZM5.38,5.77l-.17.1h0l-1.62.99v-1.21l.09-.07.69-.39,1,.58ZM6.03,2.53v1.13l-.7.4-.38.22-.79.45-.66.38-.17.09h0s-1.09-.66-1.09-.66v-1.04l.92.55c.1.06.23.06.33,0l2.52-1.52Z"/>
</svg>